<svg viewBox="0 0 2176 656" version="1.1" xmlns="http://www.w3.org/2000/svg" xmlns:xlink="http://www.w3.org/1999/xlink"><title>Bloom</title><desc>Bloom Logo</desc><defs></defs><g id="Full-Logo" stroke="none" stroke-width="1" fill="currentColor" fill-rule="evenodd"><g id="Logo" transform="translate(-43.000000, -24.000000)" fill="rgb(96,103,241)"><g id="Leaf" transform="translate(260.000000, -27.000000)"><path d="M194.415739,215.192523 C194.258317,268.684765
                  150.797287,312 97.2080838,312 C43.6188804,312
                  0.157850908,268.684765 0.000429008653,215.192523
                  C2.08721929e-14,215.192523 -3.50299401,197.114019
                  15.1796407,156.874766 C47.118659,88.0834938
                  95.9422811,58.317757 95.9422811,58.317757 C95.9422811,58.317757
                  148.877246,91.5588785 180.404192,156.874766 C196.94399,191.141061
                  194.416168,215.192523 194.416168,215.192523 Z" id="Combined-Shape"></path></g><g id="Leaf" transform="translate(357.500000, 576.000000) scale(1, -1)
              translate(-357.500000, -576.000000)
              translate(260.000000, 420.000000)"><path d="M194.415739,215.192523 C194.258317,268.684765
                150.797287,312 97.2080838,312 C43.6188804,312 0.157850908,268.684765
                0.000429008653,215.192523 C2.08721929e-14,215.192523 -3.50299401,197.114019
                15.1796407,156.874766 C47.118659,88.0834938 95.9422811,58.317757
                95.9422811,58.317757 C95.9422811,58.317757 148.877246,91.5588785
                180.404192,156.874766 C196.94399,191.141061 194.416168,215.192523
                194.416168,215.192523 Z" id="Combined-Shape"></path></g><g id="Leaf" transform="translate(563.000000, 352.500000) scale(1, -1)
              rotate(90.000000) translate(-563.000000, -352.500000)
              translate(465.500000, 196.500000)"><path d="M194.415739,215.192523 C194.258317,268.684765 150.797287,312
                97.2080838,312 C43.6188804,312 0.157850908,268.684765
                0.000429008653,215.192523 C2.08721929e-14,215.192523
                -3.50299401,197.114019 15.1796407,156.874766 C47.118659,88.0834938
                95.9422811,58.317757 95.9422811,58.317757 C95.9422811,58.317757
                148.877246,91.5588785 180.404192,156.874766 C196.94399,191.141061
                194.416168,215.192523 194.416168,215.192523 Z" id="Combined-Shape"></path></g><g id="Leaf" transform="translate(147.000000, 351.500000)
              scale(-1, -1) rotate(90.000000) translate(-147.000000, -351.500000)
              translate(49.500000, 195.500000)"><path d="M194.415739,215.192523 C194.258317,268.684765 150.797287,312
                97.2080838,312 C43.6188804,312 0.157850908,268.684765
                0.000429008653,215.192523 C2.08721929e-14,215.192523
                -3.50299401,197.114019 15.1796407,156.874766 C47.118659,88.0834938
                95.9422811,58.317757 95.9422811,58.317757 C95.9422811,58.317757
                148.877246,91.5588785 180.404192,156.874766 C196.94399,191.141061
                194.416168,215.192523 194.416168,215.192523 Z" id="Combined-Shape"></path></g></g><path d="M1014.07423,226.215364 C1014.07423,250.96845 1001.42067,282.322359
            962.359694,297.174211 C1012.42377,309.825789 1033.8798,352.731139
            1033.8798,383.534979 C1033.8798,446.242798 988.216962,499.599451
            912.845775,499.599451 L750,499.599451 L750,120.602195 L901.842682,120.602195
            C970.061859,120.602195 1014.07423,161.30727 1014.07423,226.215364 Z M830.872733,270.22085
            L894.140517,270.22085 C915.046394,270.22085 929.350415,253.718793 929.350415,231.165981
            C929.350415,207.513032 917.247013,191.561043 893.590363,191.561043
            L830.872733,191.561043 L830.872733,270.22085 Z M906.794074,336.77915
            L830.872733,336.77915 L830.872733,428.640604 L908.444538,428.640604
            C935.402116,428.640604 949.155982,404.437586 949.155982,381.884774
            C949.155982,360.432099 935.402116,336.77915 906.794074,336.77915 Z
            M1071.09026,103 L1071.09026,499.599451 L1147.56175,499.599451 L1147.56175,103
            L1071.09026,103 Z M1315.70902,429.190672 C1347.61799,429.190672
            1374.02541,406.087791 1374.02541,370.333333 C1374.02541,335.679012
            1347.61799,312.026063 1315.70902,312.026063 C1284.3502,312.026063
            1257.94278,335.679012 1257.94278,370.333333 C1257.94278,406.087791
            1284.3502,429.190672 1315.70902,429.190672 Z M1315.70902,504 C1243.08861,504
            1182.57159,451.193416 1182.57159,370.333333 C1182.57159,289.473251 1243.08861,237.216735
            1315.70902,237.216735 C1388.32943,237.216735 1449.3966,289.473251 1449.3966,370.333333
            C1449.3966,451.193416 1388.32943,504 1315.70902,504 Z M1602.13953,429.190672
            C1634.0485,429.190672 1660.45593,406.087791 1660.45593,370.333333 C1660.45593,335.679012
            1634.0485,312.026063 1602.13953,312.026063 C1570.78072,312.026063 1544.3733,335.679012
            1544.3733,370.333333 C1544.3733,406.087791 1570.78072,429.190672 1602.13953,429.190672 Z
            M1602.13953,504 C1529.51912,504 1469.00211,451.193416 1469.00211,370.333333
            C1469.00211,289.473251 1529.51912,237.216735 1602.13953,237.216735
            C1674.75995,237.216735 1735.82711,289.473251 1735.82711,370.333333
            C1735.82711,451.193416 1674.75995,504 1602.13953,504 Z M2054.71675,311.475995
            C2077.27309,311.475995 2097.07866,329.078189 2097.07866,362.632373
            L2097.07866,499.599451 L2173,499.599451 L2173,353.831276 C2173,276.271605
            2135.03933,237.216735 2073.97216,237.216735 C2055.81706,237.216735
            2021.70747,242.717421 1996.95051,282.872428 C1982.64649,253.168724
            1955.13876,237.766804 1914.42732,237.766804 C1886.91958,237.766804
            1859.41185,253.168724 1847.30845,280.122085 L1847.30845,242.717421
            L1770.83695,242.717421 L1770.83695,499.599451 L1847.30845,499.599451
            L1847.30845,363.73251 C1847.30845,324.677641 1868.76448,311.475995
            1891.87098,311.475995 C1913.87716,311.475995 1933.68273,328.528121
            1934.23288,360.982167 L1934.23288,499.599451 L2010.70438,499.599451
            L2010.70438,363.73251 C2010.70438,326.327846 2030.50995,311.475995 2054.71675,311.475995 Z" id="Bloom" fill="rgb(96,103,241)"></path></g></svg>
